<svg xmlns="http://www.w3.org/2000/svg" viewBox="0 0 600 400" width="100%" height="100%" fill="none">
  <defs>
    
    <linearGradient id="waferSilicon" x1="0%" y1="0%" x2="100%" y2="100%">
      <stop offset="0%" stop-color="#08142C" />
      <stop offset="45%" stop-color="#0F244C" />
      <stop offset="100%" stop-color="#060E20" />
    </linearGradient>

    
    <linearGradient id="silverBusbarMetallic" x1="0%" y1="0%" x2="0%" y2="100%">
      <stop offset="0%" stop-color="#FFFFFF" />
      <stop offset="35%" stop-color="#F1F5F9" />
      <stop offset="70%" stop-color="#94A3B8" />
      <stop offset="100%" stop-color="#FFFFFF" />
    </linearGradient>

    
    <pattern id="siliconFingers" width="40" height="3" patternUnits="userSpaceOnUse">
      <line x1="0" y1="1.5" x2="40" y2="1.5" stroke="#38BDF8" stroke-width="0.35" stroke-opacity="0.3" />
    </pattern>
  </defs>

  
  <rect x="20" y="20" width="560" height="360" rx="8" fill="#F8FAFC" stroke="#94A3B8" stroke-width="1.5" />

  

  
  <g transform="translate(30, 30)">
    <polygon points="12,0 158,0 170,12 170,153 158,165 12,165 0,153 0,12" fill="url(#waferSilicon)" stroke="#1E293B" stroke-width="1" />
    <polygon points="12,0 158,0 170,12 170,153 158,165 12,165 0,153 0,12" fill="url(#siliconFingers)" />
    <line x1="20" y1="0" x2="20" y2="165" stroke="url(#silverBusbarMetallic)" stroke-width="1.6" />
    <line x1="40" y1="0" x2="40" y2="165" stroke="url(#silverBusbarMetallic)" stroke-width="1.6" />
    <line x1="60" y1="0" x2="60" y2="165" stroke="url(#silverBusbarMetallic)" stroke-width="1.6" />
    <line x1="80" y1="0" x2="80" y2="165" stroke="url(#silverBusbarMetallic)" stroke-width="1.6" />
    <line x1="100" y1="0" x2="100" y2="165" stroke="url(#silverBusbarMetallic)" stroke-width="1.6" />
    <line x1="120" y1="0" x2="120" y2="165" stroke="url(#silverBusbarMetallic)" stroke-width="1.6" />
    <line x1="140" y1="0" x2="140" y2="165" stroke="url(#silverBusbarMetallic)" stroke-width="1.6" />
    <line x1="160" y1="12" x2="160" y2="153" stroke="url(#silverBusbarMetallic)" stroke-width="1.6" />
  </g>

  
  <g transform="translate(215, 30)">
    <polygon points="12,0 158,0 170,12 170,153 158,165 12,165 0,153 0,12" fill="url(#waferSilicon)" stroke="#1E293B" stroke-width="1" />
    <polygon points="12,0 158,0 170,12 170,153 158,165 12,165 0,153 0,12" fill="url(#siliconFingers)" />
    <line x1="10" y1="12" x2="10" y2="153" stroke="url(#silverBusbarMetallic)" stroke-width="1.6" />
    <line x1="30" y1="0" x2="30" y2="165" stroke="url(#silverBusbarMetallic)" stroke-width="1.6" />
    <line x1="50" y1="0" x2="50" y2="165" stroke="url(#silverBusbarMetallic)" stroke-width="1.6" />
    <line x1="70" y1="0" x2="70" y2="165" stroke="url(#silverBusbarMetallic)" stroke-width="1.6" />
    <line x1="90" y1="0" x2="90" y2="165" stroke="url(#silverBusbarMetallic)" stroke-width="1.6" />
    <line x1="110" y1="0" x2="110" y2="165" stroke="url(#silverBusbarMetallic)" stroke-width="1.6" />
    <line x1="130" y1="0" x2="130" y2="165" stroke="url(#silverBusbarMetallic)" stroke-width="1.6" />
    <line x1="150" y1="0" x2="150" y2="165" stroke="url(#silverBusbarMetallic)" stroke-width="1.6" />
  </g>

  
  <g transform="translate(400, 30)">
    <polygon points="12,0 158,0 170,12 170,153 158,165 12,165 0,153 0,12" fill="url(#waferSilicon)" stroke="#1E293B" stroke-width="1" />
    <polygon points="12,0 158,0 170,12 170,153 158,165 12,165 0,153 0,12" fill="url(#siliconFingers)" />
    <line x1="10" y1="12" x2="10" y2="153" stroke="url(#silverBusbarMetallic)" stroke-width="1.6" />
    <line x1="30" y1="0" x2="30" y2="165" stroke="url(#silverBusbarMetallic)" stroke-width="1.6" />
    <line x1="50" y1="0" x2="50" y2="165" stroke="url(#silverBusbarMetallic)" stroke-width="1.6" />
    <line x1="70" y1="0" x2="70" y2="165" stroke="url(#silverBusbarMetallic)" stroke-width="1.6" />
    <line x1="90" y1="0" x2="90" y2="165" stroke="url(#silverBusbarMetallic)" stroke-width="1.6" />
    <line x1="110" y1="0" x2="110" y2="165" stroke="url(#silverBusbarMetallic)" stroke-width="1.6" />
    <line x1="130" y1="0" x2="130" y2="165" stroke="url(#silverBusbarMetallic)" stroke-width="1.6" />
    <line x1="150" y1="0" x2="150" y2="165" stroke="url(#silverBusbarMetallic)" stroke-width="1.6" />
  </g>

  
  <g transform="translate(30, 205)">
    <polygon points="12,0 158,0 170,12 170,153 158,165 12,165 0,153 0,12" fill="url(#waferSilicon)" stroke="#1E293B" stroke-width="1" />
    <polygon points="12,0 158,0 170,12 170,153 158,165 12,165 0,153 0,12" fill="url(#siliconFingers)" />
    <line x1="20" y1="0" x2="20" y2="165" stroke="url(#silverBusbarMetallic)" stroke-width="1.6" />
    <line x1="40" y1="0" x2="40" y2="165" stroke="url(#silverBusbarMetallic)" stroke-width="1.6" />
    <line x1="60" y1="0" x2="60" y2="165" stroke="url(#silverBusbarMetallic)" stroke-width="1.6" />
    <line x1="80" y1="0" x2="80" y2="165" stroke="url(#silverBusbarMetallic)" stroke-width="1.6" />
    <line x1="100" y1="0" x2="100" y2="165" stroke="url(#silverBusbarMetallic)" stroke-width="1.6" />
    <line x1="120" y1="0" x2="120" y2="165" stroke="url(#silverBusbarMetallic)" stroke-width="1.6" />
    <line x1="140" y1="0" x2="140" y2="165" stroke="url(#silverBusbarMetallic)" stroke-width="1.6" />
    <line x1="160" y1="12" x2="160" y2="153" stroke="url(#silverBusbarMetallic)" stroke-width="1.6" />
  </g>

  
  <g transform="translate(215, 205)">
    <polygon points="12,0 158,0 170,12 170,153 158,165 12,165 0,153 0,12" fill="url(#waferSilicon)" stroke="#1E293B" stroke-width="1" />
    <polygon points="12,0 158,0 170,12 170,153 158,165 12,165 0,153 0,12" fill="url(#siliconFingers)" />
    <line x1="10" y1="12" x2="10" y2="153" stroke="url(#silverBusbarMetallic)" stroke-width="1.6" />
    <line x1="30" y1="0" x2="30" y2="165" stroke="url(#silverBusbarMetallic)" stroke-width="1.6" />
    <line x1="50" y1="0" x2="50" y2="165" stroke="url(#silverBusbarMetallic)" stroke-width="1.6" />
    <line x1="70" y1="0" x2="70" y2="165" stroke="url(#silverBusbarMetallic)" stroke-width="1.6" />
    <line x1="90" y1="0" x2="90" y2="165" stroke="url(#silverBusbarMetallic)" stroke-width="1.6" />
    <line x1="110" y1="0" x2="110" y2="165" stroke="url(#silverBusbarMetallic)" stroke-width="1.6" />
    <line x1="130" y1="0" x2="130" y2="165" stroke="url(#silverBusbarMetallic)" stroke-width="1.6" />
    <line x1="150" y1="0" x2="150" y2="165" stroke="url(#silverBusbarMetallic)" stroke-width="1.6" />
  </g>

  
  <g transform="translate(400, 205)">
    <polygon points="12,0 158,0 170,12 170,153 158,165 12,165 0,153 0,12" fill="url(#waferSilicon)" stroke="#1E293B" stroke-width="1" />
    <polygon points="12,0 158,0 170,12 170,153 158,165 12,165 0,153 0,12" fill="url(#siliconFingers)" />
    <line x1="10" y1="12" x2="10" y2="153" stroke="url(#silverBusbarMetallic)" stroke-width="1.6" />
    <line x1="30" y1="0" x2="30" y2="165" stroke="url(#silverBusbarMetallic)" stroke-width="1.6" />
    <line x1="50" y1="0" x2="50" y2="165" stroke="url(#silverBusbarMetallic)" stroke-width="1.6" />
    <line x1="70" y1="0" x2="70" y2="165" stroke="url(#silverBusbarMetallic)" stroke-width="1.6" />
    <line x1="90" y1="0" x2="90" y2="165" stroke="url(#silverBusbarMetallic)" stroke-width="1.6" />
    <line x1="110" y1="0" x2="110" y2="165" stroke="url(#silverBusbarMetallic)" stroke-width="1.6" />
    <line x1="130" y1="0" x2="130" y2="165" stroke="url(#silverBusbarMetallic)" stroke-width="1.6" />
    <line x1="150" y1="0" x2="150" y2="165" stroke="url(#silverBusbarMetallic)" stroke-width="1.6" />
  </g>

  
  <g transform="translate(340, 28)">
    <rect width="220" height="22" rx="11" fill="rgba(15, 23, 42, 0.94)" stroke="#E2E8F0" stroke-width="1.2" />
    <text x="110" y="11" font-family="-apple-system, BlinkMacSystemFont, 'Segoe UI', Roboto, sans-serif" font-size="7.5" font-weight="700" fill="#FFFFFF" text-anchor="middle" dominant-baseline="central" letter-spacing="0.5">M10 MONO PERC • 16BB • 22.8% EFF</text>
  </g>
</svg>
