<svg xmlns="http://www.w3.org/2000/svg" style="display: none;">
  <defs>
    <!-- Sun Symbol -->
    <g id="icon-sun">
      <circle cx="12" cy="12" r="5" fill="none" stroke="currentColor" stroke-width="2"/>
      <path d="M12 1v2M12 21v2M4.22 4.22l1.42 1.42M18.36 18.36l1.42 1.42M1 12h2M21 12h2M4.22 19.78l1.42-1.42M18.36 5.64l1.42-1.42" fill="none" stroke="currentColor" stroke-width="2" stroke-linecap="round"/>
    </g>

    <!-- Solar Panel Symbol -->
    <g id="icon-solar-panel">
      <polygon points="3 15 6 3 18 3 21 15 3 15" fill="none" stroke="currentColor" stroke-width="2" stroke-linejoin="round"/>
      <line x1="12" y1="3" x2="12" y2="15" stroke="currentColor" stroke-width="2"/>
      <line x1="7.5" y1="9" x2="16.5" y2="9" stroke="currentColor" stroke-width="2"/>
      <path d="M4 19h16M12 15v6" fill="none" stroke="currentColor" stroke-width="2" stroke-linecap="round"/>
    </g>

    <!-- Phone Symbol -->
    <g id="icon-phone">
      <path d="M22 16.92v3a2 2 0 0 1-2.18 2 19.79 19.79 0 0 1-8.63-3.07 19.5 19.5 0 0 1-6-6 19.79 19.79 0 0 1-3.07-8.67A2 2 0 0 1 4.11 2h3a2 2 0 0 1 2 1.72 12.84 12.84 0 0 0 .7 2.81 2 2 0 0 1-.45 2.11L8.09 9.91a16 16 0 0 0 6 6l1.27-1.27a2 2 0 0 1 2.11-.45 12.84 12.84 0 0 0 2.81.7A2 2 0 0 1 22 16.92z" fill="none" stroke="currentColor" stroke-width="2" stroke-linecap="round" stroke-linejoin="round"/>
    </g>

    <!-- WhatsApp Symbol -->
    <g id="icon-whatsapp">
      <path d="M17.472 14.382c-.297-.149-1.758-.867-2.03-.967-.273-.099-.471-.148-.67.15-.197.297-.767.966-.94 1.164-.173.199-.347.223-.644.075-.297-.15-1.255-.463-2.39-1.475-.883-.788-1.48-1.761-1.653-2.059-.173-.297-.018-.458.13-.606.134-.133.298-.347.446-.52.149-.174.198-.298.298-.497.099-.198.05-.371-.025-.52-.075-.149-.669-1.612-.916-2.207-.242-.579-.487-.5-.669-.51l-.57-.01c-.198 0-.52.074-.792.372s-1.04 1.016-1.04 2.479 1.065 2.876 1.213 3.074c.149.198 2.096 3.2 5.077 4.487.709.306 1.262.489 1.694.625.712.227 1.36.195 1.871.118.571-.085 1.758-.719 2.006-1.413.248-.694.248-1.289.173-1.413-.074-.124-.272-.198-.57-.347m-5.421 7.403h-.004a9.87 9.87 0 01-5.031-1.378l-.361-.214-3.741.982.998-3.648-.235-.374a9.86 9.86 0 01-1.51-5.26c.001-5.45 4.436-9.884 9.888-9.884 2.64 0 5.122 1.03 6.988 2.898a9.825 9.825 0 012.893 6.994c-.003 5.45-4.437 9.884-9.885 9.884m8.413-18.297A11.815 11.815 0 0012.05 0C5.495 0 .16 5.335.157 11.892c0 2.096.547 4.142 1.588 5.945L.057 24l6.305-1.654a11.882 11.882 0 005.683 1.448h.005c6.554 0 11.89-5.335 11.893-11.893a11.821 11.821 0 00-3.48-8.413z" fill="currentColor"/>
    </g>

    <!-- Email Symbol -->
    <g id="icon-email">
      <path d="M4 4h16c1.1 0 2 .9 2 2v12c0 1.1-.9 2-2 2H4c-1.1 0-2-.9-2-2V6c0-1.1.9-2 2-2z" fill="none" stroke="currentColor" stroke-width="2"/>
      <polyline points="22,6 12,13 2,6" fill="none" stroke="currentColor" stroke-width="2"/>
    </g>

    <!-- Location Pin Symbol -->
    <g id="icon-location">
      <path d="M21 10c0 7-9 13-9 13s-9-6-9-13a9 9 0 0 1 18 0z" fill="none" stroke="currentColor" stroke-width="2"/>
      <circle cx="12" cy="10" r="3" fill="none" stroke="currentColor" stroke-width="2"/>
    </g>

    <!-- Arrow Right -->
    <g id="icon-arrow-right">
      <line x1="5" y1="12" x2="19" y2="12" stroke="currentColor" stroke-width="2" stroke-linecap="round"/>
      <polyline points="12 5 19 12 12 19" fill="none" stroke="currentColor" stroke-width="2" stroke-linecap="round" stroke-linejoin="round"/>
    </g>

    <!-- Chevron Down -->
    <g id="icon-chevron-down">
      <polyline points="6 9 12 15 18 9" fill="none" stroke="currentColor" stroke-width="2" stroke-linecap="round" stroke-linejoin="round"/>
    </g>

    <!-- Close X -->
    <g id="icon-close">
      <line x1="18" y1="6" x2="6" y2="18" stroke="currentColor" stroke-width="2" stroke-linecap="round"/>
      <line x1="6" y1="6" x2="18" y2="18" stroke="currentColor" stroke-width="2" stroke-linecap="round"/>
    </g>

    <!-- Hamburger Menu -->
    <g id="icon-menu">
      <line x1="3" y1="12" x2="21" y2="12" stroke="currentColor" stroke-width="2" stroke-linecap="round"/>
      <line x1="3" y1="6" x2="21" y2="6" stroke="currentColor" stroke-width="2" stroke-linecap="round"/>
      <line x1="3" y1="18" x2="21" y2="18" stroke="currentColor" stroke-width="2" stroke-linecap="round"/>
    </g>

    <!-- Checkmark -->
    <g id="icon-check">
      <polyline points="20 6 9 17 4 12" fill="none" stroke="currentColor" stroke-width="2.5" stroke-linecap="round" stroke-linejoin="round"/>
    </g>

    <!-- Star -->
    <g id="icon-star">
      <polygon points="12 2 15.09 8.26 22 9.27 17 14.14 18.18 21.02 12 17.77 5.82 21.02 7 14.14 2 9.27 8.91 8.26 12 2" fill="currentColor"/>
    </g>

    <!-- Shield / Warranty -->
    <g id="icon-shield">
      <path d="M12 22s8-4 8-10V5l-8-3-8 3v7c0 6 8 10 8 10z" fill="none" stroke="currentColor" stroke-width="2" stroke-linejoin="round"/>
      <polyline points="9 12 11 14 15 10" fill="none" stroke="currentColor" stroke-width="2" stroke-linecap="round" stroke-linejoin="round"/>
    </g>

    <!-- Clock / Timeline -->
    <g id="icon-clock">
      <circle cx="12" cy="12" r="10" fill="none" stroke="currentColor" stroke-width="2"/>
      <polyline points="12 6 12 12 16 14" fill="none" stroke="currentColor" stroke-width="2" stroke-linecap="round"/>
    </g>

    <!-- Calculator -->
    <g id="icon-calculator">
      <rect x="4" y="2" width="16" height="20" rx="2" fill="none" stroke="currentColor" stroke-width="2"/>
      <line x1="8" y1="6" x2="16" y2="6" stroke="currentColor" stroke-width="2"/>
      <line x1="16" y1="14" x2="16" y2="18" stroke="currentColor" stroke-width="2"/>
      <circle cx="8" cy="10" r="1" fill="currentColor"/>
      <circle cx="12" cy="10" r="1" fill="currentColor"/>
      <circle cx="16" cy="10" r="1" fill="currentColor"/>
      <circle cx="8" cy="14" r="1" fill="currentColor"/>
      <circle cx="12" cy="14" r="1" fill="currentColor"/>
      <circle cx="8" cy="18" r="1" fill="currentColor"/>
      <circle cx="12" cy="18" r="1" fill="currentColor"/>
    </g>

    <!-- Leaf / Sustainability -->
    <g id="icon-leaf">
      <path d="M11 20A7 7 0 0 1 9.8 6.1C15.5 5 17 4.48 19 2c1 2 2 4.18 2 8 0 5.5-4.78 10-10 10Z" fill="none" stroke="currentColor" stroke-width="2" stroke-linecap="round" stroke-linejoin="round"/>
      <path d="M2 21c0-3 1.85-5.36 5.08-6C9.5 14.52 12 13 13 12" fill="none" stroke="currentColor" stroke-width="2" stroke-linecap="round"/>
    </g>

    <!-- Factory / Industrial -->
    <g id="icon-factory">
      <path d="M2 20a2 2 0 0 0 2 2h16a2 2 0 0 0 2-2V8l-7 5V8l-7 5V4a2 2 0 0 0-2-2H4a2 2 0 0 0-2 2Z" fill="none" stroke="currentColor" stroke-width="2" stroke-linejoin="round"/>
      <path d="M17 18h1M12 18h1M7 18h1" stroke="currentColor" stroke-width="2" stroke-linecap="round"/>
    </g>

    <!-- Home / Residential -->
    <g id="icon-home">
      <path d="M3 9l9-7 9 7v11a2 2 0 0 1-2 2H5a2 2 0 0 1-2-2z" fill="none" stroke="currentColor" stroke-width="2"/>
      <polyline points="9 22 9 12 15 12 15 22" fill="none" stroke="currentColor" stroke-width="2"/>
    </g>

    <!-- Hospital / Medical -->
    <g id="icon-hospital">
      <rect x="3" y="3" width="18" height="18" rx="2" fill="none" stroke="currentColor" stroke-width="2"/>
      <path d="M12 8v8M8 12h8" stroke="currentColor" stroke-width="2.5" stroke-linecap="round"/>
    </g>

    <!-- Lightbulb / Street Light -->
    <g id="icon-lightbulb">
      <path d="M9 18h6M10 22h4M15 13a6 6 0 1 0-6 0c0 2 1 3 1 5h4c0-2 1-3 1-5z" fill="none" stroke="currentColor" stroke-width="2" stroke-linecap="round" stroke-linejoin="round"/>
    </g>

    <!-- Download -->
    <g id="icon-download">
      <path d="M21 15v4a2 2 0 0 1-2 2H5a2 2 0 0 1-2-2v-4" fill="none" stroke="currentColor" stroke-width="2"/>
      <polyline points="7 10 12 15 17 10" fill="none" stroke="currentColor" stroke-width="2" stroke-linecap="round" stroke-linejoin="round"/>
      <line x1="12" y1="15" x2="12" y2="3" stroke="currentColor" stroke-width="2" stroke-linecap="round"/>
    </g>
  </defs>
</svg>
